PathFileType	4	(X/Y/Z)	C:\Users\WrightLab\Desktop\Jo\P4V121.trc
DataRate	CameraRate	NumFrames	NumMarkers	Units	OrigDataRate	OrigDataStartFrame	OrigNumFrames
100.00	100.00	       44	19	mm	100.00	1	       551
Frame#	Time	Headset_Front			Headset_Back			Headset_Left			Headset_Right			Left_Shoulder			Right_Shoulder			Sternum			C7			Left Elbow			Right Elbow			Left Wrist			Right Wrist			Left ASIS			Right ASIS			S2			Left Knee			Right Knee			Left Ankle			Right Ankle			
		X1	Y1	Z1	X2	Y2	Z2	X3	Y3	Z3	X4	Y4	Z4	X5	Y5	Z5	X6	Y6	Z6	X7	Y7	Z7	X8	Y8	Z8	X9	Y9	Z9	X10	Y10	Z10	X11	Y11	Z11	X12	Y12	Z12	X13	Y13	Z13	X14	Y14	Z14	X15	Y15	Z15	X16	Y16	Z16	X17	Y17	Z17	X18	Y18	Z18	X19	Y19	Z19	

1	0.000																									238.39082	1164.73206	-1634.83301				204.99940	895.14838	-1474.68970	-301.77670	864.00012	-1431.52820										96.54044	509.12601	-1588.66687										
2	0.010																									239.23087	1163.71472	-1633.40759				204.17439	895.49609	-1474.67603	-301.38058	864.55286	-1431.25696										96.68990	509.57831	-1587.18909										
3	0.020																									239.62184	1162.47229	-1631.57056				203.36769	895.25842	-1473.87634	-300.96497	865.02661	-1435.64185										97.55818	508.92685	-1589.29431										
4	0.030																									241.16431	1161.92578	-1630.67981				202.51540	895.37488	-1473.75195	-301.22867	867.71497	-1431.89709										97.98843	508.12051	-1589.65051										
5	0.040																									241.57591	1160.91150	-1629.39014				201.42575	894.88422	-1472.71313	-300.44675	867.59204	-1433.78992										98.02763	508.13812	-1589.25208										
6	0.050																									241.63295	1160.76563	-1630.14551				200.34717	894.80487	-1472.41907	-300.32306	868.14301	-1433.10791	115.37520	1001.59009	-1576.76331							98.08188	508.25217	-1588.70947										
7	0.060																									241.57896	1160.57971	-1630.97864				199.67014	894.20813	-1471.58411	-299.66177	868.71423	-1434.16919	114.57281	1002.59717	-1572.05005							98.46081	507.21799	-1589.56799										
8	0.070																									241.79547	1159.14941	-1629.29492				199.18176	893.86182	-1471.07410	-299.11884	869.18530	-1435.37402	114.73109	1002.73779	-1570.45178							98.48468	507.20367	-1589.32300										
9	0.080																									241.93726	1157.68445	-1627.70349				198.57024	893.32751	-1470.26965	-300.00705	870.52740	-1424.56946	114.92855	1002.98022	-1568.45581							98.51311	507.21201	-1589.03345										
10	0.090																									241.61818	1157.39355	-1628.76563				198.36935	892.62714	-1469.42468	-299.67215	871.24091	-1432.22595	114.94483	1002.33063	-1566.44080							98.51358	507.10358	-1589.01794										
11	0.100																									241.27861	1157.12427	-1629.70410				198.02907	891.91705	-1468.68542	-299.63367	871.42542	-1432.01672	115.11510	1002.42810	-1564.71960							98.51492	507.02707	-1588.99658										
12	0.110																									241.10539	1155.91833	-1628.73523				197.79857	890.87195	-1467.49036	-299.60794	871.55908	-1431.87891	114.08665	1002.18616	-1559.54871							98.53426	507.02374	-1588.79834										
13	0.120																									240.88879	1154.72925	-1627.64575				197.30855	890.36542	-1467.35205	-300.76437	874.59821	-1427.73608	113.51927	1001.78833	-1557.04431							97.64850	507.82159	-1586.07617										
14	0.130																									240.09233	1154.13928	-1627.70020				197.25893	889.66052	-1467.20679	-301.28851	875.45667	-1419.51282	114.13274	1000.77094	-1557.31067							97.06819	507.79300	-1584.11658										
15	0.140																									239.58090	1153.92554	-1628.20190				196.78682	889.01251	-1467.13623	-302.31973	876.38055	-1423.24353	114.03972	1000.24365	-1555.41443							97.06932	507.77188	-1584.10303										
16	0.150																									239.42770	1152.30139	-1625.62219				196.52574	888.47156	-1467.48291	-302.42313	876.52521	-1423.94006	114.22360	1000.32843	-1553.56226							97.08968	507.80695	-1583.89917										
17	0.160																									238.25574	1152.21106	-1626.20068				195.93657	886.58411	-1465.92590	-303.67172	878.38074	-1421.19739	112.73378	1000.81165	-1547.62695							97.10622	507.82199	-1583.73206										
18	0.170																									237.83569	1150.88416	-1623.96082				196.03978	884.47626	-1464.47083	-305.29877	879.57898	-1416.04224	112.47742	1000.19379	-1545.81604							97.12541	507.85153	-1583.53931										
19	0.180																									237.23390	1150.75769	-1623.96252				195.70844	883.02325	-1463.97913	-305.66617	879.10699	-1421.91248	112.00261	999.98663	-1543.98303							97.16571	507.96866	-1583.14026										
20	0.190																									236.76357	1149.50574	-1621.32141				195.00673	882.29425	-1464.85388	-308.00845	881.87762	-1418.73865	111.24320	1000.33716	-1540.81738							97.21308	508.06802	-1582.66724										
21	0.200																									236.76192	1148.51050	-1618.98303				194.45695	880.76434	-1464.63928	-308.30817	881.61829	-1420.59875	110.07162	999.73639	-1537.16895							97.07344	507.69312	-1581.23792										
22	0.210																									235.47971	1148.12305	-1617.80066				193.75082	879.43494	-1465.06921	-310.80945	882.31964	-1414.85889	109.13146	1000.01685	-1534.93115							97.11739	507.81241	-1580.80225	-230.71043	512.44574	-1521.10278							
23	0.220																									234.97195	1148.17651	-1617.05151				192.85556	877.55457	-1464.50085	-313.36478	884.29486	-1408.63611	108.85033	998.99316	-1534.93701							97.15791	507.88187	-1580.39661	-230.16061	512.68573	-1525.97485							
24	0.230																									234.42531	1147.02979	-1613.49890				191.80635	875.67297	-1464.03442	-313.09235	885.03497	-1411.33728	107.25338	999.22913	-1530.17798							96.35216	507.68347	-1577.54529	-230.29068	512.50549	-1526.85828							
25	0.240																									233.95940	1147.24768	-1612.01990				190.87650	874.35626	-1464.42444	-314.16925	886.18378	-1411.40356	105.72533	1000.35181	-1525.59412							96.31714	507.51080	-1577.88489	-230.46042	512.37006	-1528.03381							
26	0.250																									233.53667	1146.27539	-1607.77295				189.76273	872.74689	-1464.01099	-316.64444	887.12854	-1407.94031	104.24753	1000.39850	-1521.56909							95.90753	506.98788	-1577.41736	-230.68701	512.17590	-1529.59875							
27	0.260																									232.45831	1146.98633	-1606.65967				188.74718	871.87006	-1464.44922	-318.83167	887.58179	-1409.06885	102.96362	999.44727	-1518.21704							95.24396	507.04175	-1575.52747	-232.37650	513.09766	-1527.89001							
28	0.270																									232.07336	1146.62061	-1602.96191				187.79002	870.99152	-1464.60681	-320.53873	888.94733	-1401.15759	102.14217	999.52478	-1517.28003							95.21736	506.84454	-1575.77954	-235.28664	514.99353	-1522.60413							
29	0.280																									231.72285	1147.03577	-1600.67383				186.55423	869.74603	-1464.02209	-323.15182	889.49377	-1404.70813	100.09013	998.76453	-1512.81934							95.16897	506.49158	-1576.23816	-236.30420	514.75165	-1523.71350							
30	0.290																									231.38074	1147.45093	-1598.39551				185.07709	868.57721	-1463.22864	-324.29965	890.52533	-1405.20093	98.83607	998.58710	-1512.76514							93.85522	507.27463	-1572.43945	-239.16048	514.89813	-1519.12573							
31	0.300																									230.37506	1147.45496	-1595.62390				183.96274	867.27972	-1462.32471	-326.25433	890.81812	-1403.80017	98.55920	997.81390	-1515.47327							93.00040	507.57550	-1570.20105	-241.13600	515.23999	-1517.28333							
32	0.310																									229.74928	1147.52112	-1592.74939				182.88756	866.52130	-1462.14673	-330.23218	891.92603	-1402.91858	96.25157	997.53314	-1510.95667							92.08838	508.07458	-1567.77368	-243.54094	516.56763	-1512.46301							
33	0.320																									229.40213	1147.95569	-1590.37915				181.52554	866.02411	-1462.16614	-331.69211	891.64581	-1404.67859	95.40998	997.05255	-1511.06018							91.46667	507.67889	-1566.23083	-245.55382	517.80182	-1508.58765							
34	0.330																									229.60971	1146.59778	-1584.11340				180.24033	865.46539	-1462.09644	-333.80420	893.66791	-1402.16589	94.52933	996.89661	-1510.87512							91.37072	507.03885	-1567.13318	-247.59868	517.31201	-1504.93811							
35	0.340																									229.27783	1147.12439	-1581.33386				178.87341	864.79053	-1461.07825	-336.13083	893.58478	-1400.50049	92.38933	996.70502	-1507.18628							90.21505	506.48178	-1564.44800	-249.82726	519.22015	-1501.22290							
36	0.350																									228.48169	1146.71521	-1576.68774				177.34970	863.48724	-1458.84497	-339.54160	894.40387	-1403.67908	91.32248	996.69293	-1506.27783							89.40285	506.61160	-1564.52356	-252.49562	519.83447	-1495.57727							
37	0.360																									228.02983	1147.28125	-1573.61694				176.10696	862.40961	-1456.38477	-342.51978	894.46936	-1400.96570	88.14130	998.09906	-1497.87891							87.66837	507.28513	-1562.46326	-254.43304	521.02344	-1490.06616							
38	0.370																									226.95898	1148.08765	-1570.87231				174.73424	861.47119	-1453.91223	-344.89670	896.88184	-1398.09241	86.89285	997.26862	-1496.04102							87.18908	505.81433	-1564.35742	-257.22650	523.69708	-1484.22839							
39	0.380																									225.34897	1147.92773	-1566.32275				173.68697	860.98315	-1451.98022	-348.72641	895.38977	-1400.30261	85.39977	996.76489	-1494.12280							85.97469	505.73474	-1564.53857	-259.98047	524.07538	-1479.22034							
40	0.390																									225.17278	1146.68835	-1559.20654				171.74684	860.08997	-1448.86633	-351.61032	897.23999	-1400.43506	83.72296	995.75092	-1493.67627							83.73286	506.40442	-1560.47717	-264.38934	525.61603	-1473.07336							
41	0.400																									224.23482	1146.74084	-1554.50171				170.29054	859.73950	-1446.08777	-354.41379	897.30408	-1396.67981	81.24416	995.57092	-1491.62402							83.57319	505.87534	-1562.01465	-267.02304	525.85706	-1473.38037							
42	0.410																									223.08382	1146.98865	-1550.08850				168.71341	859.14557	-1442.71277	-358.07693	897.73102	-1401.25952	79.42194	995.08929	-1491.10083							82.76733	505.55191	-1561.55615	-270.77225	529.33807	-1464.39880							
43	0.420																									220.56911	1147.06165	-1545.60767				167.21806	857.23645	-1437.01221	-360.74414	897.74866	-1401.00769	78.15437	994.20459	-1489.94250							82.65427	505.19312	-1562.64514	-273.47476	530.14764	-1459.82825							
44	0.430																									219.99313	1145.89624	-1537.85120				164.80803	856.93335	-1433.13281	-363.90652	899.34613	-1398.44739	75.71997	995.10327	-1485.20190							81.30434	506.05124	-1559.31055	-277.14151	532.77332	-1455.68591							
